# xmcd
#
# Track frame offsets: 
#        183
#        23005
#        41328
#        61040
#        79725
#        97133
#        116993
#        136260
#        155423
#        176248
#
# Disc length: 2555 seconds
#
# Revision: 10
# Processed by: cddbd v1.5.2PL0 Copyright (c) Steve Scherf et al.
# Submitted via: ExactAudioCopy v1.3
#
DISCID=7e09f90a
DTITLE=Joe Cocker - Unchain my Heart
DYEAR=1987
DGENRE=Blues
TTITLE0=Unchain My Heart
TTITLE1=Two Wrongs
TTITLE2=I Stand In Wonder
TTITLE3=The River's Rising
TTITLE4=Isolation
TTITLE5=All Our Tomorrows
TTITLE6=A Woman Loves A Man
TTITLE7=Trust In Me
TTITLE8=The One
TTITLE9=Satisfied
EXTD=YEAR: 1987
EXTT0=
EXTT1=
EXTT2=
EXTT3=
EXTT4=
EXTT5=
EXTT6=
EXTT7=
EXTT8=
EXTT9=
PLAYORDER=
